<?xml version="1.0" encoding="utf-8"?>
<!-- Generator: Adobe Illustrator 23.0.4, SVG Export Plug-In . SVG Version: 6.00 Build 0)  -->
<svg version="1.1" id="Layer_1" xmlns="http://www.w3.org/2000/svg" xmlns:xlink="http://www.w3.org/1999/xlink" x="0px" y="0px"
	 viewBox="0 0 1188.7 160.9" style="enable-background:new 0 0 1188.7 160.9;" xml:space="preserve">
<style type="text/css">
	.st0{fill:#76D15D;}
	.st1{fill:#FFFFFF;}
</style>
<path class="st0" d="M101.6,97c4.3,5.8,8.1,11.6,9.3,20.5c0,0.9,0.3,1.7,0.6,2.3c-0.3,0.6-0.6,1.2-0.9,2c-0.6,0.3-1.2,0.6-1.7,0.6
	c-3.2,0.9-3.2,1.4-6.1,0.9c-4.6-0.9-6.7,5.8-2,7.5c1.7,0.6,3.5,0,4.3-1.4c0.3-0.3,0.3-0.6,0.6-0.9c1.2-1.7,3.8-2,4.6-2.9
	c0.9-0.3,1.2-0.3,1.7,0.3c0.3,0.6,0.6,1.2,0.9,1.7c-0.3,1.2-0.9,2-1.4,3.2c-1.2,2-4,2.3-4,5.2c0,2,1.7,3.8,3.8,3.8
	c1.7,0,3.2-1.2,3.8-2.9c0.9-2.6-1.4-1.7,1.2-7.5c0.3-0.6,0.6-0.6,1.7-0.6s1.4-0.3,2,0.3c0.6,0.9,1.4,1.7,1.7,2.9
	c0.6,1.7-0.3,5.2,3.5,6.1c2,0.6,4-0.9,4.6-2.9c0-0.6,0-0.9,0-1.4c-0.6-3.2-3.2-2.6-4.9-4.3c-0.9-0.9-1.4-1.7-2-2.6
	c-0.3-0.6,0.3-1.2,0.6-1.7c0.3-0.9,0.6-0.9,1.4-0.9c2,0.6,3.5,0.6,5.2,1.4c0.6,0.6,2.3,2.6,5.2,1.4c2-0.9,2.6-3.2,1.7-5.2
	c-0.9-1.4-2.3-2.3-4-2c-1.4,0.3-1.4,1.2-3.8,1.2l-4-0.3c-1.4,0-1.4-0.6-2-1.4c0.9-8.1-0.9-22-3.8-25.2l-0.3-0.3
	c-0.9-1.7-2-3.5-3.2-4.9c3.8-1.7,7.5-3.8,14.2-4.3c6.7-0.6,22.8,12.4,25.7,15.9s1.2,1.2,1.7,1.7c0,0.6,0.3,1.4,0.3,2
	c-0.3,0.6-0.6,1.2-1.2,1.4c-2,2.6-1.7,2.9-4.6,4c-2,0.6-3.2,2.9-2.3,4.9c0.6,2,2.9,3.2,4.9,2.3c1.4-0.6,2.6-2,2.6-3.5
	c0-0.3,0-0.6,0-0.9c0-2,2-3.8,2.3-4.9c0.6-0.6,0.9-1.2,1.4-0.9c0.6,0.3,1.2,0.6,1.7,0.9c0.3,1.2,0.3,2.3,0.6,3.5c0,2.3-2,4-0.3,6.7
	c1.2,1.7,3.5,2.3,5.2,1.2c1.4-0.9,2-2.6,1.4-4.3c-0.9-2.6-2-0.9-3.2-6.9c0-0.9,0.3-0.9,1.2-1.4c0.9-0.6,1.2-1.2,1.7-0.9
	c0.9,0.6,2,0.9,2.9,1.4c1.4,1.2,2.6,4.6,6.1,3.2c2-0.9,2.9-2.9,2.3-4.9c-0.3-0.6-0.6-0.9-0.9-1.2c-2-2.3-4-0.3-6.7-0.9
	c-1.2-0.3-2-0.6-3.2-1.2c-0.6-0.6-0.3-1.2-0.6-1.7c-0.3-0.9-0.3-1.2,0.9-1.4c2-0.6,3.2-1.4,5.2-1.4c0.9,0,3.2,1.2,4.9-1.4
	c2.3-3.8-2.6-7.8-5.8-4.6c-1.2,0.9-0.6,1.7-2.6,3.2l-4,1.4c-0.3,0.3-0.9,0.3-1.2,0.3c-2-6.1-17.6-16.8-23.7-21.4
	c2-12.1,10.7-5.8,23.1-12.1c15.9-8.1,14.7-22.6,12.7-25.7c-2-2.9-13.9-9.5-27.5-2c-13.3,7.5-12.4,19.7-21.1,14.7
	c-0.6-7.5,4.6-26.9,1.2-32.1c0.3-0.6,0.6-0.9,1.2-1.2l3.5-1.2c2.3-0.9,2.6,0,4-0.3c2-0.3,3.5-2.3,2.9-4.6c-0.3-1.7-1.7-2.9-3.5-3.2
	c-3.2,0-3.8,2.3-4,3.2c-1.2,1.7-2.3,2-4,3.5c-0.9,0.6-1.2,0.6-1.4-0.3c-0.6-0.6-1.2-0.6-1.2-1.4c0.3-1.2,0.6-2.3,0.9-3.2
	c1.2-2.3,3.8-2.9,2.9-5.8c-0.6-2-2.6-3.5-4.6-2.9c-0.6,0-0.9,0.3-1.4,0.6c-3.2,2.3-1.2,5.2-1.2,6.9c-0.3,1.2-0.3,2.3-0.6,3.5
	c-0.3,0.6-0.9,0.6-1.7,0.9c-0.9,0.3-1.2,0.6-1.7,0c-4.3-4.3-2.3-4.3-4-6.4c-1.2-1.7-3.8-2-5.5-0.6c-1.4,1.2-1.7,2.9-1.2,4.3
	c1.2,2.9,3.8,2,5.8,3.5c0.9,0.6,1.7,1.4,2.6,2.3c0,0.6,0,1.2-0.3,1.7c0,0.6-0.6,0.6-1.4,0.9c-1.4-0.3-3.8,0.3-5.5-0.9
	c-0.3-0.3-0.6-0.3-0.6-0.6c-1.4-0.9-3.2-0.9-4.6,0.3c-3.5,3.2,0.9,8.7,4.9,6.1c2.6-1.7,2.9-1.2,6.1-1.4c0.6,0,1.2,0,2,0
	c0.6,0.6,1.2,1.2,1.4,1.4c0,0.9-0.6-2,0.6,2.3s-3.2,26-7.2,31.2c-4.3,5.2-8.4,7.2-11.9,9.3c-0.9-2.9-2-5.8-3.5-8.4
	c0-0.3,0-0.3,0-0.6C97.8,52.3,87.7,43,80.5,39c-0.3-0.9-0.9-1.2,0-2.3l2-3.5c1.4-2,2-1.4,3.2-2.6c1.4-1.4,1.4-4,0-5.5
	c-1.2-1.2-3.2-1.4-4.6-0.6c-2.6,1.4-1.7,4-1.7,4.9c0,1.7-0.9,3.2-1.7,5.2c-0.3,0.9-0.6,0.9-1.4,0.6c-0.6-0.3-1.2,0-1.7-0.6
	c-0.6-1.2-0.9-2-1.2-3.2c-0.6-2.6,1.4-4.3-0.9-6.7c-1.4-1.4-4-1.4-5.5,0c-0.3,0.3-0.6,0.9-0.9,1.2c-1.4,3.5,2,4.6,3.2,6.1
	c0.6,1.2,0.9,2,1.4,3.2c0,0.9-0.6,1.2-1.2,1.7c-0.6,0.6-0.6,1.2-1.4,0.9c-6.1-1.2-4-2.3-6.9-3.2c-2-0.6-4,0.3-4.9,2.3
	c-0.6,1.7,0,3.5,1.4,4.3c2.6,1.7,4.3-0.3,6.7-0.3c1.2,0,2.3,0.3,3.5,0.6c0.3,0.6,0.9,0.9,0.9,1.7c0.3,0.9-0.3,1.2-0.9,1.4
	c-1.4,0.3-2.9,2.3-5.2,2.3c-0.3,0-0.6,0-0.9,0c-1.7,0-3.2,1.2-3.8,2.9c-1.2,4.6,5.5,6.9,7.2,2.3c1.2-2.9,1.7-2.6,4.3-4.6
	c0.6-0.6,0.9-0.9,1.4-1.2c0.6,0,1.4,0.3,2,0.3c0.6,0.6,1.2,1.2,1.7,1.7c7.5,6.7,9.8,14.2,12.4,22l2,5.5l2.9,4.6
	c-1.2,1.2-2,2-3.2,3.2c-20.8,18.5-51.5,18.5-68.2-0.3c-1.4-1.7-2.9-3.5-4-5.2C4.2,54.5,14,24.4,38.9,12C53,5,69.5,4.8,83.7,12
	c-0.6-0.3,3.8,2-1.7-1.2C73.6,6.2,58.8,3,48.7,4.5C17.2,9.7-4.2,38.3,0.7,68.9s34.4,51.2,65.6,46.3c13.3-2,25.7-8.7,34.7-19.1
	L101.6,97L101.6,97L101.6,97z M160.9,34.5c2.3-0.3,4,0.3,4.3,0.9c0.3,0.6-1.4,1.4-3.8,1.4c-2.3,0.3-4-0.3-4.3-0.9
	S158.6,34.8,160.9,34.5L160.9,34.5L160.9,34.5z M169.8,49.9c0.6-1.7,1.7-2.6,2-2s0.3,2-0.6,3.8c-0.6,1.7-1.7,2.6-2,2
	C169,53,169.3,51.6,169.8,49.9L169.8,49.9z"/>
<path class="st1" d="M267.7,20.9c-22.6,0-39.9,18.3-39.9,42.5c0,23.8,16.4,42.6,39.8,42.6c20.4,0,31.9-11.7,34.5-26h-41.6V63.5h61.1
	v6.4c0,29.3-20.3,52.9-53.9,52.9c-34.8,0-58.8-25.2-58.8-59C209,29.3,234.4,4,268,4c27.9,0,46.1,16.7,51.4,35.2l-17.8,5.6
	C299,34.8,288.2,20.9,267.7,20.9z"/>
<path class="st1" d="M369.6,107.7c9.5,0,17.8-3.8,20.9-13.3l14.9,4.5c-4.5,15.2-19.9,23.9-35.6,23.9c-23.2,0-41.4-17.6-41.4-41
	c0-22.5,16.8-41,39.7-41c24.6,0,38.6,17,38.6,40.8c0,1.8-0.1,3.6-0.3,5.4h-60C346.9,99.2,358,107.7,369.6,107.7z M347.4,73.9h41.4
	c-0.6-11.3-9.6-17.9-20.5-17.9C357.5,56,349,63.1,347.4,73.9z"/>
<path class="st1" d="M413.5,81.8c0-22.5,17.8-40.9,41.4-40.9c19.6,0,33.2,12.1,36.5,25.5l-16,5.2c-1.8-6.1-7.6-14.7-20.6-14.7
	c-12.9,0-23.2,9.7-23.2,24.7c0,14.7,10,25.3,23.4,25.3c13.5,0,18.5-9,20.8-15l16.1,5.2c-3.5,12-15.7,25.8-37.3,25.8
	C431.3,122.8,413.5,105.1,413.5,81.8z"/>
<path class="st1" d="M502.9,121.5V1h17.6v72.6h0.1l30.7-31h23.9l-35.7,35.7l37.6,43.2H554l-32.9-38.6h-0.5v38.6H502.9z"/>
<path class="st1" d="M614.9,40.9c22.7,0,41.4,17.5,41.4,40.6c0,23.3-18.4,41.3-41.6,41.3c-22.8,0-41.7-17.7-41.7-40.9
	C573.1,58.4,592,40.9,614.9,40.9z M614.9,106.9c14.3,0,23.5-11.4,23.5-25c0-13.7-9.4-25.1-23.7-25.1S591,67.8,591,81.5
	C591.1,95,600.6,106.9,614.9,106.9z"/>
<path class="st0" d="M745.7,22.1h-55.9v32.2h50.9v16.5h-50.9v34.1h56.5v16.5h-74.7V5.7h74.1L745.7,22.1L745.7,22.1z"/>
<path class="st0" d="M796.6,57.6c-11.2,0-18.3,8-18.3,19.9v44h-17.6v-79h17.2v10.6c7.6-10.2,17.9-12.3,24.1-12.3
	c20.1,0,29.6,14,29.6,32v48.6H814V77.3C814,66,808.8,57.6,796.6,57.6z"/>
<path class="st0" d="M843,81.7c0-19.2,14.2-40.5,38.9-40.5c6.9,0,19.3,3.4,25.8,13.4v-12h17.2V121c0,25-18.6,39.9-42.7,39.9
	c-17.2,0-35.6-8.4-39-26.6l16.6-4.7c1.7,8,10.6,15.6,21.7,15.6c13,0,25.8-6.9,25.8-23.5v-13c-6.4,10.3-19.5,13.3-25.8,13.3
	C858.7,122,843,102.9,843,81.7z M884,56.9c-14.3,0-23.5,10.9-23.5,24.5s9.3,24.8,23.6,24.8c14.2,0,23.5-11.3,23.5-24.8
	C907.6,67.8,898.3,56.9,884,56.9z"/>
<path class="st0" d="M988.2,121.5c-0.4-1.9-0.7-8-0.7-10.8c-5.8,9.6-15.8,12.2-23.2,12.2c-15.4,0-26.6-9.6-26.6-23.2v-0.9
	c0-18.3,19.1-24.1,32.8-24.1h9.7c5.3,0,7.4-2.8,7.4-6.6c0-6.3-5.1-12.1-15.5-12.1c-9.6,0-16,5.5-17.3,13.1l-16-3.6
	c0.7-6.6,6.7-16.6,17.7-21.4c4.5-2,10.3-3,16-3c13.3,0,24.3,4.7,29.6,16.2c1.9,4.2,2.7,8.7,2.7,14.1V109c0,4.8,0.1,9,0.6,12.7h-17.2
	V121.5z M987.5,86.9h-17c-6.6,0-15.2,3.6-15.2,11c0,6.4,5.1,10.8,12.6,10.8c12,0,19.6-7.4,19.6-19.3L987.5,86.9L987.5,86.9z"/>
<path class="st0" d="M1016.2,81.7c0-19.2,14.2-40.5,38.9-40.5c6.9,0,19.3,3.4,25.8,13.4v-12h17.2V121c0,25-18.6,39.9-42.7,39.9
	c-17.2,0-35.6-8.4-39-26.6l16.6-4.7c1.7,8,10.6,15.6,21.7,15.6c13,0,25.8-6.9,25.8-23.5v-13c-6.4,10.3-19.5,13.3-25.8,13.3
	C1031.9,122,1016.2,102.9,1016.2,81.7z M1057.2,56.9c-14.3,0-23.5,10.9-23.5,24.5s9.3,24.8,23.6,24.8c14.2,0,23.5-11.3,23.5-24.8
	C1080.8,67.8,1071.5,56.9,1057.2,56.9z"/>
<path class="st0" d="M1151.6,107.7c9.5,0,17.8-3.8,20.9-13.3l14.9,4.5c-4.5,15.2-19.9,23.9-35.6,23.9c-23.2,0-41.4-17.6-41.4-41
	c0-22.5,16.8-41,39.7-41c24.6,0,38.6,17,38.6,40.8c0,1.8-0.1,3.6-0.3,5.4h-60C1128.9,99.2,1140,107.7,1151.6,107.7z M1129.4,73.9
	h41.4c-0.6-11.3-9.6-17.9-20.5-17.9C1139.5,56,1130.9,63.1,1129.4,73.9z"/>
</svg>
