<?xml version="1.0" encoding="utf-8"?>
<!-- Generator: Adobe Illustrator 23.0.4, SVG Export Plug-In . SVG Version: 6.00 Build 0)  -->
<svg version="1.1" id="Layer_1" xmlns="http://www.w3.org/2000/svg" xmlns:xlink="http://www.w3.org/1999/xlink" x="0px" y="0px"
	 viewBox="0 0 200 200" style="enable-background:new 0 0 200 200;" xml:space="preserve">
<style type="text/css">
	.st0{fill:#76D15D;}
</style>
<path class="st0" d="M111.3,127c4.3,5.8,8.1,11.6,9.3,20.5c0,0.9,0.3,1.7,0.6,2.3c-0.3,0.6-0.6,1.2-0.9,2c-0.6,0.3-1.2,0.6-1.7,0.6
	c-3.2,0.9-3.2,1.4-6.1,0.9c-4.6-0.9-6.7,5.8-2,7.5c1.7,0.6,3.5,0,4.3-1.4c0.3-0.3,0.3-0.6,0.6-0.9c1.2-1.7,3.8-2,4.6-2.9
	c0.9-0.3,1.2-0.3,1.7,0.3c0.3,0.6,0.6,1.2,0.9,1.7c-0.3,1.2-0.9,2-1.4,3.2c-1.2,2-4,2.3-4,5.2c0,2,1.7,3.8,3.8,3.8
	c1.7,0,3.2-1.2,3.8-2.9c0.9-2.6-1.4-1.7,1.2-7.5c0.3-0.6,0.6-0.6,1.7-0.6s1.4-0.3,2,0.3c0.6,0.9,1.4,1.7,1.7,2.9
	c0.6,1.7-0.3,5.2,3.5,6.1c2,0.6,4-0.9,4.6-2.9c0-0.6,0-0.9,0-1.4c-0.6-3.2-3.2-2.6-4.9-4.3c-0.9-0.9-1.4-1.7-2-2.6
	c-0.3-0.6,0.3-1.2,0.6-1.7c0.3-0.9,0.6-0.9,1.4-0.9c2,0.6,3.5,0.6,5.2,1.4c0.6,0.6,2.3,2.6,5.2,1.4c2-0.9,2.6-3.2,1.7-5.2
	c-0.9-1.4-2.3-2.3-4-2c-1.4,0.3-1.4,1.2-3.8,1.2l-4-0.3c-1.4,0-1.4-0.6-2-1.4c0.9-8.1-0.9-22-3.8-25.2l-0.3-0.3
	c-0.9-1.7-2-3.5-3.2-4.9c3.8-1.7,7.5-3.8,14.2-4.3c6.7-0.6,22.8,12.4,25.7,15.9s1.2,1.2,1.7,1.7c0,0.6,0.3,1.4,0.3,2
	c-0.3,0.6-0.6,1.2-1.2,1.4c-2,2.6-1.7,2.9-4.6,4c-2,0.6-3.2,2.9-2.3,4.9c0.6,2,2.9,3.2,4.9,2.3c1.4-0.6,2.6-2,2.6-3.5
	c0-0.3,0-0.6,0-0.9c0-2,2-3.8,2.3-4.9c0.6-0.6,0.9-1.2,1.4-0.9c0.6,0.3,1.2,0.6,1.7,0.9c0.3,1.2,0.3,2.3,0.6,3.5c0,2.3-2,4-0.3,6.7
	c1.2,1.7,3.5,2.3,5.2,1.2c1.4-0.9,2-2.6,1.4-4.3c-0.9-2.6-2-0.9-3.2-6.9c0-0.9,0.3-0.9,1.2-1.4c0.9-0.6,1.2-1.2,1.7-0.9
	c0.9,0.6,2,0.9,2.9,1.4c1.4,1.2,2.6,4.6,6.1,3.2c2-0.9,2.9-2.9,2.3-4.9c-0.3-0.6-0.6-0.9-0.9-1.2c-2-2.3-4-0.3-6.7-0.9
	c-1.2-0.3-2-0.6-3.2-1.2c-0.6-0.6-0.3-1.2-0.6-1.7c-0.3-0.9-0.3-1.2,0.9-1.4c2-0.6,3.2-1.4,5.2-1.4c0.9,0,3.2,1.2,4.9-1.4
	c2.3-3.8-2.6-7.8-5.8-4.6c-1.2,0.9-0.6,1.7-2.6,3.2l-4,1.4c-0.3,0.3-0.9,0.3-1.2,0.3c-2-6.1-17.6-16.8-23.7-21.4
	c2-12.1,10.7-5.8,23.1-12.1c15.9-8.1,14.7-22.6,12.7-25.7c-2-2.9-13.9-9.5-27.5-2c-13.3,7.5-12.4,19.7-21.1,14.7
	c-0.6-7.5,4.6-26.9,1.2-32.1c0.3-0.6,0.6-0.9,1.2-1.2l3.5-1.2c2.3-0.9,2.6,0,4-0.3c2-0.3,3.5-2.3,2.9-4.6c-0.3-1.7-1.7-2.9-3.5-3.2
	c-3.2,0-3.8,2.3-4,3.2c-1.2,1.7-2.3,2-4,3.5c-0.9,0.6-1.2,0.6-1.4-0.3c-0.6-0.6-1.2-0.6-1.2-1.4c0.3-1.2,0.6-2.3,0.9-3.2
	c1.2-2.3,3.8-2.9,2.9-5.8c-0.6-2-2.6-3.5-4.6-2.9c-0.6,0-0.9,0.3-1.4,0.6c-3.2,2.3-1.2,5.2-1.2,6.9c-0.3,1.2-0.3,2.3-0.6,3.5
	c-0.3,0.6-0.9,0.6-1.7,0.9c-0.9,0.3-1.2,0.6-1.7,0c-4.3-4.3-2.3-4.3-4-6.4c-1.2-1.7-3.8-2-5.5-0.6c-1.4,1.2-1.7,2.9-1.2,4.3
	c1.2,2.9,3.8,2,5.8,3.5c0.9,0.6,1.7,1.4,2.6,2.3c0,0.6,0,1.2-0.3,1.7c0,0.6-0.6,0.6-1.4,0.9c-1.4-0.3-3.8,0.3-5.5-0.9
	c-0.3-0.3-0.6-0.3-0.6-0.6c-1.4-0.9-3.2-0.9-4.6,0.3c-3.5,3.2,0.9,8.7,4.9,6.1c2.6-1.7,2.9-1.2,6.1-1.4c0.6,0,1.2,0,2,0
	c0.6,0.6,1.2,1.2,1.4,1.4c0,0.9-0.6-2,0.6,2.3s-3.2,26-7.2,31.2c-4.3,5.2-8.4,7.2-11.9,9.3c-0.9-2.9-2-5.8-3.5-8.4
	c0-0.3,0-0.3,0-0.6C107.5,82.3,97.4,73,90.2,69c-0.3-0.9-0.9-1.2,0-2.3l2-3.5c1.4-2,2-1.4,3.2-2.6c1.4-1.4,1.4-4,0-5.5
	c-1.2-1.2-3.2-1.4-4.6-0.6c-2.6,1.4-1.7,4-1.7,4.9c0,1.7-0.9,3.2-1.7,5.2c-0.3,0.9-0.6,0.9-1.4,0.6c-0.6-0.3-1.2,0-1.7-0.6
	c-0.6-1.2-0.9-2-1.2-3.2c-0.6-2.6,1.4-4.3-0.9-6.7c-1.4-1.4-4-1.4-5.5,0c-0.3,0.3-0.6,0.9-0.9,1.2c-1.4,3.5,2,4.6,3.2,6.1
	c0.6,1.2,0.9,2,1.4,3.2c0,0.9-0.6,1.2-1.2,1.7c-0.6,0.6-0.6,1.2-1.4,0.9c-6.1-1.2-4-2.3-6.9-3.2c-2-0.6-4,0.3-4.9,2.3
	c-0.6,1.7,0,3.5,1.4,4.3c2.6,1.7,4.3-0.3,6.7-0.3c1.2,0,2.3,0.3,3.5,0.6c0.3,0.6,0.9,0.9,0.9,1.7c0.3,0.9-0.3,1.2-0.9,1.4
	c-1.4,0.3-2.9,2.3-5.2,2.3c-0.3,0-0.6,0-0.9,0c-1.7,0-3.2,1.2-3.8,2.9c-1.2,4.6,5.5,6.9,7.2,2.3c1.2-2.9,1.7-2.6,4.3-4.6
	c0.6-0.6,0.9-0.9,1.4-1.2c0.6,0,1.4,0.3,2,0.3c0.6,0.6,1.2,1.2,1.7,1.7c7.5,6.7,9.8,14.2,12.4,22l2,5.5l2.9,4.6
	c-1.2,1.2-2,2-3.2,3.2c-20.8,18.5-51.5,18.5-68.2-0.3c-1.4-1.7-2.9-3.5-4-5.2C13.9,84.5,23.7,54.4,48.6,42c14.1-7,30.6-7.2,44.8,0
	c-0.6-0.3,3.8,2-1.7-1.2c-8.4-4.6-23.2-7.8-33.3-6.3c-31.5,5.2-52.9,33.8-48,64.4s34.4,51.2,65.6,46.3c13.3-2,25.7-8.7,34.7-19.1
	L111.3,127L111.3,127L111.3,127z M170.6,64.5c2.3-0.3,4,0.3,4.3,0.9s-1.4,1.4-3.8,1.4c-2.3,0.3-4-0.3-4.3-0.9S168.3,64.8,170.6,64.5
	L170.6,64.5L170.6,64.5z M179.5,79.9c0.6-1.7,1.7-2.6,2-2s0.3,2-0.6,3.8c-0.6,1.7-1.7,2.6-2,2C178.7,83,179,81.6,179.5,79.9
	L179.5,79.9z"/>
</svg>
