<svg id="Layer_1" data-name="Layer 1" xmlns="http://www.w3.org/2000/svg" viewBox="0 0 1188.7 160.94"><defs><style>.cls-1{fill:#fff;}</style></defs><title>gecko-engage-white</title><path class="cls-1" d="M101.61,97c4.34,5.78,8.1,11.57,9.26,20.53a5.42,5.42,0,0,0,.57,2.31,14.23,14.23,0,0,0-.86,2,4.1,4.1,0,0,1-1.74.57c-3.18.87-3.18,1.45-6.07.87a3.9,3.9,0,0,0-2,7.52,3.57,3.57,0,0,0,4.33-1.45c.29-.28.29-.57.58-.86,1.16-1.74,3.76-2,4.63-2.89.86-.29,1.15-.29,1.73.28l.87,1.74a15.47,15.47,0,0,1-1.45,3.18c-1.15,2-4,2.31-4,5.2a3.82,3.82,0,0,0,3.75,3.76,4,4,0,0,0,3.76-2.89c.87-2.6-1.44-1.73,1.16-7.52.29-.57.58-.57,1.73-.57s1.45-.29,2,.29a9.46,9.46,0,0,1,1.73,2.89c.58,1.73-.29,5.2,3.47,6.07a3.9,3.9,0,0,0,4.63-2.89v-1.45c-.58-3.18-3.18-2.6-4.92-4.34a15.92,15.92,0,0,1-2-2.6c-.29-.58.29-1.15.58-1.73.29-.87.58-.87,1.44-.87,2,.58,3.47.58,5.21,1.45a4.47,4.47,0,0,0,5.2,1.44,3.8,3.8,0,0,0,1.74-5.2,3.89,3.89,0,0,0-4-2c-1.45.29-1.45,1.16-3.76,1.16L125,120.7c-1.44,0-1.44-.58-2-1.45.87-8.09-.87-22-3.76-25.15l-.29-.29a29,29,0,0,0-3.18-4.92c3.76-1.73,7.52-3.75,14.17-4.33s22.84,12.43,25.73,15.9,1.16,1.16,1.74,1.74c0,.57.29,1.44.29,2a2.83,2.83,0,0,1-1.16,1.44c-2,2.61-1.74,2.9-4.63,4a3.84,3.84,0,1,0,2.61,7.23,4.05,4.05,0,0,0,2.6-3.47v-.87c0-2,2-3.75,2.31-4.91.58-.58.87-1.16,1.45-.87l1.73.87c.29,1.16.29,2.31.58,3.47,0,2.31-2,4-.29,6.65a3.77,3.77,0,0,0,5.2,1.16,3.59,3.59,0,0,0,1.45-4.34c-.87-2.6-2-.87-3.18-6.94,0-.87.29-.87,1.16-1.45s1.15-1.15,1.73-.86c.87.57,2,.86,2.89,1.44,1.45,1.16,2.61,4.63,6.07,3.18a3.53,3.53,0,0,0,1.45-6.07c-2-2.31-4.05-.29-6.65-.87a14.52,14.52,0,0,1-3.18-1.15c-.58-.58-.29-1.16-.58-1.74-.29-.87-.29-1.16.87-1.44,2-.58,3.18-1.45,5.2-1.45.87,0,3.18,1.16,4.92-1.45,2.31-3.75-2.6-7.8-5.78-4.62-1.16.87-.58,1.73-2.61,3.18l-4,1.44a1.74,1.74,0,0,1-1.16.29c-2-6.07-17.64-16.77-23.71-21.39,2-12.15,10.7-5.79,23.13-12.15C182,54.49,180.84,40,178.81,36.85c-2-2.89-13.88-9.54-27.47-2-13.3,7.51-12.43,19.66-21.1,14.74-.58-7.52,4.62-26.89,1.15-32.09a2.26,2.26,0,0,1,1.16-1.16L136,15.16c2.31-.86,2.6,0,4-.29A3.63,3.63,0,0,0,143,10.25a4,4,0,0,0-3.47-3.18,3.87,3.87,0,0,0-4.05,3.18c-1.15,1.73-2.31,2-4.05,3.47-.86.58-1.15.58-1.44-.29-.58-.58-1.16-.58-1.16-1.45.29-1.15.58-2.31.87-3.18,1.16-2.31,3.76-2.89,2.89-5.78A3.9,3.9,0,0,0,127.92.13c-.57,0-.86.29-1.44.58-3.18,2.31-1.16,5.2-1.16,6.94C125,8.8,125,10,124.74,11.12c-.29.57-.86.57-1.73.86s-1.16.58-1.74,0c-4.33-4.33-2.31-4.33-4-6.36a3.77,3.77,0,0,0-5.5-.58,3.69,3.69,0,0,0-1.15,4.34c1.15,2.89,3.75,2,5.78,3.47a19.27,19.27,0,0,1,2.6,2.31,3.68,3.68,0,0,1-.29,1.74c0,.58-.58.58-1.44.87-1.45-.29-3.76.29-5.5-.87-.29-.29-.58-.29-.58-.58a3.9,3.9,0,0,0-4.62.29c-3.47,3.18.87,8.67,4.91,6.07,2.61-1.73,2.89-1.16,6.08-1.44h2L121,22.68c0,.87-.57-2,.58,2.31s-3.18,26-7.23,31.23c-4.33,5.21-8.38,7.23-11.85,9.25A42.52,42.52,0,0,0,99,57.09v-.58c-1.16-4.34-11.28-13.59-18.5-17.64-.29-.86-.87-1.15,0-2.31l2-3.47c1.44-2,2-1.45,3.18-2.6a4,4,0,0,0,0-5.5,3.94,3.94,0,0,0-4.63-.57c-2.6,1.44-1.73,4-1.73,4.91,0,1.74-.87,3.18-1.74,5.21-.29.86-.57.86-1.44.57-.58-.28-1.16,0-1.74-.57a14.71,14.71,0,0,1-1.15-3.18c-.58-2.61,1.44-4.34-.87-6.65a4,4,0,0,0-5.49,0c-.29.28-.58.86-.87,1.15-1.45,3.47,2,4.63,3.18,6.07.58,1.16.87,2,1.44,3.18,0,.87-.57,1.16-1.15,1.74s-.58,1.16-1.45.87c-6.07-1.16-4-2.32-6.94-3.18a4,4,0,0,0-4.91,2.31,3.59,3.59,0,0,0,1.44,4.34c2.61,1.73,4.34-.29,6.65-.29a14.39,14.39,0,0,1,3.47.58c.29.57.87.86.87,1.73.29.87-.29,1.16-.87,1.45C66.34,45,64.89,47,62.58,47h-.87A4,4,0,0,0,58,49.86c-1.15,4.63,5.5,6.94,7.23,2.31,1.16-2.89,1.74-2.6,4.34-4.62A5.2,5.2,0,0,1,71,46.39c.58,0,1.45.29,2,.29l1.73,1.73c7.52,6.66,9.83,14.17,12.44,22l2,5.49,2.89,4.63-3.18,3.18C68.07,102.2,37.42,102.2,20.65,83.4a63.13,63.13,0,0,1-4-5.2C4.17,54.49,14,24.42,38.87,12a49.91,49.91,0,0,1,44.82,0c-.58-.29,3.75,2-1.74-1.15C73.57,6.2,58.82,3,48.7,4.47,17.18,9.67-4.21,38.3.7,68.94s34.41,51.18,65.64,46.27A57.16,57.16,0,0,0,101,96.12l.58.87Zm59.28-62.45c2.31-.29,4,.29,4.33.86s-1.44,1.45-3.76,1.45c-2.31.29-4-.29-4.33-.87s1.44-1.15,3.76-1.44Zm9,15.32c.58-1.73,1.73-2.6,2-2a4.87,4.87,0,0,1-.57,3.76c-.58,1.73-1.74,2.6-2,2s0-2,.58-3.76Z"/><path class="cls-1" d="M267.74,20.89c-22.6,0-39.92,18.27-39.92,42.52,0,23.83,16.39,42.6,39.78,42.6,20.43,0,31.9-11.7,34.5-26H260.52V63.48h61.15v6.36c0,29.31-20.29,52.91-53.93,52.91-34.8,0-58.76-25.19-58.76-59C209,29.27,234.39,4,268,4c27.93,0,46.05,16.75,51.4,35.16l-17.84,5.55C299,34.82,288.17,20.89,267.74,20.89Z"/><path class="cls-1" d="M369.6,107.74c9.53,0,17.76-3.76,20.94-13.29L405.41,99c-4.48,15.16-19.93,23.9-35.59,23.9-23.25,0-41.37-17.62-41.37-41,0-22.45,16.82-41,39.71-41,24.61,0,38.55,17,38.55,40.79a44.58,44.58,0,0,1-.29,5.41h-60C346.86,99.22,358,107.74,369.6,107.74ZM347.37,73.88H388.8c-.57-11.33-9.6-17.9-20.5-17.9S349,63.05,347.37,73.88Z"/><path class="cls-1" d="M413.5,81.82c0-22.52,17.83-40.93,41.36-40.93,19.56,0,33.21,12.13,36.53,25.48l-15.95,5.2c-1.81-6.14-7.58-14.73-20.65-14.73-12.85,0-23.25,9.75-23.25,24.69,0,14.73,10,25.27,23.39,25.27s18.48-9,20.79-15l16.1,5.2c-3.53,12-15.73,25.85-37.25,25.85C431.33,122.83,413.5,105.07,413.5,81.82Z"/><path class="cls-1" d="M502.94,121.45V1h17.62V73.59h.14l30.68-31h23.9L539.62,78.21l37.61,43.24H554L521.06,82.83h-.5v38.62Z"/><path class="cls-1" d="M614.91,40.89c22.67,0,41.44,17.47,41.44,40.64s-18.41,41.3-41.58,41.3c-22.81,0-41.66-17.69-41.66-40.94C573.11,58.43,592,40.89,614.91,40.89Zm0,66c14.3,0,23.54-11.4,23.54-25s-9.39-25-23.68-25-23.68,11-23.68,24.69S600.62,106.87,614.91,106.87Z"/><path class="cls-1" d="M745.73,22.12h-56v32.2h50.89V70.78H689.78v34.14H746.3v16.53H671.59V5.66h74.14Z"/><path class="cls-1" d="M796.62,57.56c-11.19,0-18.26,8-18.26,19.93v44H760.74V42.55h17.18V53.16A29.8,29.8,0,0,1,802,40.89c20.07,0,29.6,14,29.6,32v48.58H814V77.27C814,66,808.75,57.56,796.62,57.56Z"/><path class="cls-1" d="M843,81.68c0-19.21,14.23-40.5,38.91-40.5,6.86,0,19.35,3.39,25.78,13.35v-12h17.18V121c0,25-18.55,39.92-42.67,39.92-17.18,0-35.59-8.44-39-26.64l16.6-4.69c1.66,8,10.62,15.6,21.66,15.6,13,0,25.77-6.93,25.77-23.47v-13C900.87,119,887.8,122,881.45,122,858.71,122,843,102.9,843,81.68Zm41-24.77c-14.3,0-23.54,10.91-23.54,24.55s9.32,24.83,23.61,24.83S907.58,95,907.58,81.46,898.34,56.91,884.05,56.91Z"/><path class="cls-1" d="M988.22,121.45a80.34,80.34,0,0,1-.72-10.82c-5.78,9.6-15.81,12.2-23.17,12.2-15.45,0-26.64-9.61-26.64-23.25v-.87c0-18.33,19.06-24.11,32.84-24.11h9.75c5.34,0,7.36-2.81,7.36-6.64,0-6.28-5.12-12.06-15.52-12.06-9.6,0-16,5.49-17.25,13.07l-16-3.61c.65-6.64,6.72-16.6,17.69-21.44a40.44,40.44,0,0,1,16-3c13.28,0,24.33,4.69,29.6,16.17,1.95,4.19,2.67,8.73,2.67,14.08v37.61a109,109,0,0,0,.58,12.7ZM987.5,87h-17c-6.64,0-15.16,3.61-15.16,11,0,6.43,5.13,10.76,12.56,10.76,12,0,19.64-7.37,19.64-19.28Z"/><path class="cls-1" d="M1016.23,81.68c0-19.21,14.23-40.5,38.91-40.5,6.86,0,19.35,3.39,25.78,13.35v-12h17.18V121c0,25-18.55,39.92-42.67,39.92-17.18,0-35.59-8.44-39-26.64l16.6-4.69c1.67,8,10.62,15.6,21.66,15.6,13,0,25.77-6.93,25.77-23.47v-13C1074.06,119,1061,122,1054.64,122,1031.9,122,1016.23,102.9,1016.23,81.68Zm41-24.77c-14.3,0-23.54,10.91-23.54,24.55s9.32,24.83,23.61,24.83,23.46-11.33,23.46-24.83S1071.53,56.91,1057.24,56.91Z"/><path class="cls-1" d="M1151.59,107.74c9.53,0,17.76-3.76,20.94-13.29L1187.4,99c-4.48,15.16-19.92,23.9-35.59,23.9-23.25,0-41.37-17.62-41.37-41,0-22.45,16.83-41,39.71-41,24.62,0,38.55,17,38.55,40.79a44.58,44.58,0,0,1-.29,5.41h-60C1128.85,99.22,1140,107.74,1151.59,107.74Zm-22.23-33.86h41.44c-.58-11.33-9.6-17.9-20.51-17.9S1131,63.05,1129.36,73.88Z"/></svg>