<?xml version="1.0" encoding="utf-8"?>
<!-- Generator: Adobe Illustrator 23.0.4, SVG Export Plug-In . SVG Version: 6.00 Build 0)  -->
<svg version="1.1" id="Layer_1" xmlns="http://www.w3.org/2000/svg" xmlns:xlink="http://www.w3.org/1999/xlink" x="0px" y="0px"
	 viewBox="0 0 200 200" style="enable-background:new 0 0 200 200;" xml:space="preserve">
<style type="text/css">
	.st0{fill:#76D15D;}
</style>
<g>
	<g>
		<g>
			<path class="st0" d="M190.6,32.6v150.6c0,3.1-2.5,5.6-5.6,5.6h-37.8c-1.4,0-2.7-0.5-3.7-1.4l-2.3-2.1l-9.7-8.7
				c-5-4.5-5.5-12.2-0.9-17.3c4.5-5,12.2-5.5,17.3-0.9c0.5,0.4,1,1,1.4,1.4l3.7,4.6c1.1,1.3,2.7,2.1,4.3,2.1h5.5
				c3.1,0,5.6-2.5,5.6-5.6V54.9c0-3.1-2.5-5.6-5.6-5.6H38.2c-3.1,0-5.6,2.5-5.6,5.6v106.7c0,3,2.4,5.5,5.4,5.6l67.1,2.4
				c4.5,0.2,8,4,7.9,8.5c-0.1,4.3-3.7,7.7-7.9,7.9l-83.6,3l-5.4,0.2c-3.1,0.1-5.8-2.4-5.8-5.6V32.6c0-3.1,2.5-5.6,5.6-5.6h7.6
				c3.1,0,5.6-2.5,5.6-5.6l0-3.2c0-5.3,3.5-10.1,8.7-11.3c7.2-1.5,13.6,3.9,13.6,10.9v3.6c0,3.1,2.5,5.6,5.6,5.6h87.2
				c3.1,0,5.6-2.5,5.6-5.6l0-3.2c0-5.3,3.5-10.1,8.7-11.3c7.2-1.5,13.6,3.9,13.6,10.9v3.6c0,3.1,2.5,5.6,5.6,5.6h7.6
				C188.1,27.1,190.6,29.5,190.6,32.6z"/>
		</g>
		<g>
			<path class="st0" d="M151.3,78.8l-56.7,62.6c-2.3,2.5-6,2.5-8.3,0l-35.9-39.6c-4.2-4.6-3.8-11.8,1-15.9c4.6-4,11.7-3.2,15.9,1.4
				l20.1,22.1c2.1,2.3,5.6,2.4,7.9,0.3l44.6-41.6c2.8-2.6,7-3.2,10.1-1C154,70,154.3,75.4,151.3,78.8z"/>
		</g>
	</g>
</g>
</svg>
