<?xml version="1.0" encoding="utf-8"?>
<!-- Generator: Adobe Illustrator 23.0.4, SVG Export Plug-In . SVG Version: 6.00 Build 0)  -->
<svg version="1.1" id="Layer_1" xmlns="http://www.w3.org/2000/svg" xmlns:xlink="http://www.w3.org/1999/xlink" x="0px" y="0px"
	 viewBox="0 0 1077 167.6" style="enable-background:new 0 0 1077 167.6;" xml:space="preserve">
<style type="text/css">
	.st0{fill:#FFFFFF;}
	.st1{enable-background:new    ;}
</style>
<path class="st0" d="M106.6,103c4.3,5.8,8.1,11.6,9.3,20.5c0,0.9,0.3,1.7,0.6,2.3c-0.3,0.6-0.6,1.2-0.9,2c-0.6,0.3-1.2,0.6-1.7,0.6
	c-3.2,0.9-3.2,1.4-6.1,0.9c-4.6-0.9-6.7,5.8-2,7.5c1.7,0.6,3.5,0,4.3-1.4c0.3-0.3,0.3-0.6,0.6-0.9c1.2-1.7,3.8-2,4.6-2.9
	c0.9-0.3,1.2-0.3,1.7,0.3c0.3,0.6,0.6,1.2,0.9,1.7c-0.3,1.2-0.9,2-1.4,3.2c-1.2,2-4,2.3-4,5.2c0,2,1.7,3.8,3.8,3.8
	c1.7,0,3.2-1.2,3.8-2.9c0.9-2.6-1.4-1.7,1.2-7.5c0.3-0.6,0.6-0.6,1.7-0.6s1.4-0.3,2,0.3c0.6,0.9,1.4,1.7,1.7,2.9
	c0.6,1.7-0.3,5.2,3.5,6.1c2,0.6,4-0.9,4.6-2.9c0-0.6,0-0.9,0-1.4c-0.6-3.2-3.2-2.6-4.9-4.3c-0.9-0.9-1.4-1.7-2-2.6
	c-0.3-0.6,0.3-1.2,0.6-1.7c0.3-0.9,0.6-0.9,1.4-0.9c2,0.6,3.5,0.6,5.2,1.4c0.6,0.6,2.3,2.6,5.2,1.4c2-0.9,2.6-3.2,1.7-5.2
	c-0.9-1.4-2.3-2.3-4-2c-1.4,0.3-1.4,1.2-3.8,1.2l-4-0.3c-1.4,0-1.4-0.6-2-1.4c0.9-8.1-0.9-22-3.8-25.2l-0.3-0.3
	c-0.9-1.7-2-3.5-3.2-4.9c3.8-1.7,7.5-3.8,14.2-4.3c6.7-0.6,22.8,12.4,25.7,15.9s1.2,1.2,1.7,1.7c0,0.6,0.3,1.4,0.3,2
	c-0.3,0.6-0.6,1.2-1.2,1.4c-2,2.6-1.7,2.9-4.6,4c-2,0.6-3.2,2.9-2.3,4.9c0.6,2,2.9,3.2,4.9,2.3c1.4-0.6,2.6-2,2.6-3.5
	c0-0.3,0-0.6,0-0.9c0-2,2-3.8,2.3-4.9c0.6-0.6,0.9-1.2,1.4-0.9c0.6,0.3,1.2,0.6,1.7,0.9c0.3,1.2,0.3,2.3,0.6,3.5c0,2.3-2,4-0.3,6.7
	c1.2,1.7,3.5,2.3,5.2,1.2c1.4-0.9,2-2.6,1.4-4.3c-0.9-2.6-2-0.9-3.2-6.9c0-0.9,0.3-0.9,1.2-1.4c0.9-0.6,1.2-1.2,1.7-0.9
	c0.9,0.6,2,0.9,2.9,1.4c1.4,1.2,2.6,4.6,6.1,3.2c2-0.9,2.9-2.9,2.3-4.9c-0.3-0.6-0.6-0.9-0.9-1.2c-2-2.3-4-0.3-6.7-0.9
	c-1.2-0.3-2-0.6-3.2-1.2c-0.6-0.6-0.3-1.2-0.6-1.7c-0.3-0.9-0.3-1.2,0.9-1.4c2-0.6,3.2-1.4,5.2-1.4c0.9,0,3.2,1.2,4.9-1.4
	c2.3-3.8-2.6-7.8-5.8-4.6c-1.2,0.9-0.6,1.7-2.6,3.2l-4,1.4c-0.3,0.3-0.9,0.3-1.2,0.3c-2-6.1-17.6-16.8-23.7-21.4
	c2-12.1,10.7-5.8,23.1-12.1c15.9-8.1,14.7-22.6,12.7-25.7c-2-2.9-13.9-9.5-27.5-2c-13.3,7.5-12.4,19.7-21.1,14.7
	c-0.6-7.5,4.6-26.9,1.2-32.1c0.3-0.6,0.6-0.9,1.2-1.2l3.5-1.2c2.3-0.9,2.6,0,4-0.3c2-0.3,3.5-2.3,2.9-4.6c-0.3-1.7-1.7-2.9-3.5-3.2
	c-3.2,0-3.8,2.3-4,3.2c-1.2,1.7-2.3,2-4,3.5c-0.9,0.6-1.2,0.6-1.4-0.3c-0.6-0.6-1.2-0.6-1.2-1.4c0.3-1.2,0.6-2.3,0.9-3.2
	c1.2-2.3,3.8-2.9,2.9-5.8c-0.6-2-2.6-3.5-4.6-2.9c-0.6,0-0.9,0.3-1.4,0.6c-3.2,2.3-1.2,5.2-1.2,6.9c-0.3,1.2-0.3,2.3-0.6,3.5
	c-0.3,0.6-0.9,0.6-1.7,0.9c-0.9,0.3-1.2,0.6-1.7,0c-4.3-4.3-2.3-4.3-4-6.4c-1.2-1.7-3.8-2-5.5-0.6c-1.4,1.2-1.7,2.9-1.2,4.3
	c1.2,2.9,3.8,2,5.8,3.5c0.9,0.6,1.7,1.4,2.6,2.3c0,0.6,0,1.2-0.3,1.7c0,0.6-0.6,0.6-1.4,0.9c-1.4-0.3-3.8,0.3-5.5-0.9
	c-0.3-0.3-0.6-0.3-0.6-0.6c-1.4-0.9-3.2-0.9-4.6,0.3c-3.5,3.2,0.9,8.7,4.9,6.1c2.6-1.7,2.9-1.2,6.1-1.4c0.6,0,1.2,0,2,0
	c0.6,0.6,1.2,1.2,1.4,1.4c0,0.9-0.6-2,0.6,2.3s-3.2,26-7.2,31.2c-4.3,5.2-8.4,7.2-11.9,9.3c-0.9-2.9-2-5.8-3.5-8.4
	c0-0.3,0-0.3,0-0.6C102.8,58.3,92.7,49,85.5,45c-0.3-0.9-0.9-1.2,0-2.3l2-3.5c1.4-2,2-1.4,3.2-2.6c1.4-1.4,1.4-4,0-5.5
	c-1.2-1.2-3.2-1.4-4.6-0.6c-2.6,1.4-1.7,4-1.7,4.9c0,1.7-0.9,3.2-1.7,5.2c-0.3,0.9-0.6,0.9-1.4,0.6c-0.6-0.3-1.2,0-1.7-0.6
	c-0.6-1.2-0.9-2-1.2-3.2c-0.6-2.6,1.4-4.3-0.9-6.7c-1.4-1.4-4-1.4-5.5,0c-0.3,0.3-0.6,0.9-0.9,1.2c-1.4,3.5,2,4.6,3.2,6.1
	c0.6,1.2,0.9,2,1.4,3.2c0,0.9-0.6,1.2-1.2,1.7c-0.6,0.6-0.6,1.2-1.4,0.9c-6.1-1.2-4-2.3-6.9-3.2c-2-0.6-4,0.3-4.9,2.3
	c-0.6,1.7,0,3.5,1.4,4.3c2.6,1.7,4.3-0.3,6.7-0.3c1.2,0,2.3,0.3,3.5,0.6c0.3,0.6,0.9,0.9,0.9,1.7c0.3,0.9-0.3,1.2-0.9,1.4
	c-1.4,0.3-2.9,2.3-5.2,2.3c-0.3,0-0.6,0-0.9,0c-1.7,0-3.2,1.2-3.8,2.9c-1.2,4.6,5.5,6.9,7.2,2.3c1.2-2.9,1.7-2.6,4.3-4.6
	c0.6-0.6,0.9-0.9,1.4-1.2c0.6,0,1.4,0.3,2,0.3c0.6,0.6,1.2,1.2,1.7,1.7c7.5,6.7,9.8,14.2,12.4,22l2,5.5l2.9,4.6
	c-1.2,1.2-2,2-3.2,3.2c-20.8,18.5-51.5,18.5-68.2-0.3c-1.4-1.7-2.9-3.5-4-5.2C9.2,60.5,19,30.4,43.9,18c14.1-7,30.6-7.2,44.8,0
	c-0.6-0.3,3.8,2-1.7-1.2c-8.4-4.6-23.2-7.8-33.3-6.3c-31.5,5.2-52.9,33.8-48,64.4s34.4,51.2,65.6,46.3c13.3-2,25.7-8.7,34.7-19.1
	L106.6,103L106.6,103L106.6,103z M165.9,40.5c2.3-0.3,4,0.3,4.3,0.9c0.3,0.6-1.4,1.4-3.8,1.4c-2.3,0.3-4-0.3-4.3-0.9
	S163.6,40.8,165.9,40.5L165.9,40.5L165.9,40.5z M174.8,55.9c0.6-1.7,1.7-2.6,2-2s0.3,2-0.6,3.8c-0.6,1.7-1.7,2.6-2,2
	C174,59,174.3,57.6,174.8,55.9L174.8,55.9z"/>
<g class="st1">
	<path class="st0" d="M273.2,26.6c-22.6,0-40,18.3-40,42.6c0,23.8,16.4,42.6,39.8,42.6c20.5,0,31.9-11.7,34.5-26H266V69.2h61.2v6.4
		c0,29.3-20.3,53-54,53c-34.8,0-58.8-25.2-58.8-59c0-34.5,25.4-59.8,59-59.8c28,0,46.1,16.8,51.5,35.2l-17.8,5.6
		C304.5,40.5,293.7,26.6,273.2,26.6z"/>
	<path class="st0" d="M374.2,113.5c9.5,0,17.8-3.8,21-13.3l14.9,4.6c-4.5,15.2-19.9,23.9-35.6,23.9c-23.3,0-41.4-17.6-41.4-41
		c0-22.5,16.8-41,39.7-41c24.6,0,38.6,17.1,38.6,40.8c0,1.8-0.1,3.6-0.3,5.4H351C351.4,105,362.5,113.5,374.2,113.5z M351.9,79.6
		h41.5c-0.6-11.3-9.6-17.9-20.5-17.9C362,61.7,353.5,68.8,351.9,79.6z"/>
	<path class="st0" d="M417.1,87.6c0-22.5,17.8-41,41.4-41c19.6,0,33.2,12.1,36.6,25.5l-16,5.2c-1.8-6.1-7.6-14.7-20.7-14.7
		c-12.9,0-23.3,9.8-23.3,24.7c0,14.7,10,25.3,23.4,25.3c13.5,0,18.5-9,20.8-15l16.1,5.2c-3.5,12-15.8,25.9-37.3,25.9
		C434.9,128.6,417.1,110.8,417.1,87.6z"/>
	<path class="st0" d="M505.6,127.2V6.7h17.6v72.6h0.1l30.7-31.1H578L542.3,84l37.7,43.3h-23.3l-33-38.7h-0.5v38.7H505.6z"/>
	<path class="st0" d="M616.6,46.6c22.7,0,41.5,17.5,41.5,40.7c0,23.3-18.4,41.3-41.6,41.3c-22.8,0-41.7-17.7-41.7-41
		C574.8,64.2,593.7,46.6,616.6,46.6z M616.6,112.6c14.3,0,23.6-11.4,23.6-25c0-13.7-9.4-25.1-23.7-25.1s-23.7,11.1-23.7,24.7
		C592.8,100.8,602.3,112.6,616.6,112.6z"/>
	<path class="st0" d="M663.7,94.7l17.6-4.8c2.5,13.5,11.8,22.3,25.7,22.3c11.6,0,21-6.5,21-16.3c0-9.5-7.3-14.9-17.1-16.9l-14.2-2.9
		c-19-3.8-29.3-16.4-29.3-31.6c0-19.1,17.4-34.8,38.2-34.8c26.3,0,37.1,16,39.5,28.5l-17,5.3c-2-8.2-9.8-17.4-22.1-17.4
		c-11.3,0-19.9,7.9-19.9,16.8c0,6.6,5.3,13.6,14.6,15.4l14.7,2.9c20.7,4,31.6,16.4,31.6,33.6c0,16.8-14.4,33.8-40.1,33.8
		C679.6,128.5,665.5,111.1,663.7,94.7z"/>
	<path class="st0" d="M782.6,64.1v37.7c0,6.8,3.4,10.2,12.2,10.2c1.6,0,3.8-0.1,7.2-0.6v15c-4.8,1.4-10.5,1.6-12.6,1.6
		c-15.5,0-24.3-6-24.3-25.2V64.1h-15.3V48.3H765V23.8h17.6v24.5h20.1v15.8H782.6z"/>
	<path class="st0" d="M824.8,48.3l24.6,51.7l22.8-51.7h19.1L837,166.2h-18.9l21.8-47.8l-35.2-70.1H824.8z"/>
	<path class="st0" d="M897.7,127.2V6.7h17.6v120.5H897.7z"/>
	<path class="st0" d="M967.8,113.5c9.5,0,17.8-3.8,21-13.3l14.9,4.6c-4.5,15.2-19.9,23.9-35.6,23.9c-23.3,0-41.4-17.6-41.4-41
		c0-22.5,16.8-41,39.7-41c24.6,0,38.6,17.1,38.6,40.8c0,1.8-0.1,3.6-0.3,5.4h-60.1C945.1,105,956.2,113.5,967.8,113.5z M945.6,79.6
		h41.5c-0.6-11.3-9.6-17.9-20.5-17.9C955.7,61.7,947.2,68.8,945.6,79.6z"/>
	<path class="st0" d="M1010.6,105.6l15.1-4c1.4,6.7,6.8,12.6,15.8,12.6c7.3,0,11.3-3.8,11.3-9.2c0-4.3-2.7-7.1-9.4-8.7l-10.1-2.4
		c-14.4-3.4-20.9-12.4-20.9-22.7c0-13.1,11.8-24.7,27.9-24.7c20.7,0,27.8,13.5,29.2,21.1l-14.9,4.2c-1.2-5.1-5-11.1-14.3-11.1
		c-5.6,0-10.8,3.6-10.8,9c0,4.6,3.5,7.2,7.9,8.2l10.8,2.3c14.5,3.1,22.4,12.5,22.4,23.8c0,12.2-9.2,24.6-28.8,24.6
		C1020.4,128.6,1011.6,114.4,1010.6,105.6z"/>
</g>
</svg>
